<svg width="120" height="120" viewBox="0 0 120 120" xmlns="http://www.w3.org/2000/svg">
  <defs>
    <linearGradient id="bg" x1="0%" y1="0%" x2="100%" y2="100%">
      <stop offset="0%" style="stop-color:#667eea"/>
      <stop offset="100%" style="stop-color:#764ba2"/>
    </linearGradient>
  </defs>
  <!-- Background circle -->
  <circle cx="60" cy="60" r="55" fill="url(#bg)"/>
  <!-- Calculator icon -->
  <rect x="35" y="30" width="50" height="65" rx="8" fill="#fff" opacity="0.95"/>
  <!-- Display -->
  <rect x="40" y="36" width="40" height="18" rx="4" fill="#1a1a2e"/>
  <!-- Buttons grid -->
  <rect x="40" y="58" width="8" height="8" rx="2" fill="#e0e0e0"/>
  <rect x="51" y="58" width="8" height="8" rx="2" fill="#e0e0e0"/>
  <rect x="62" y="58" width="8" height="8" rx="2" fill="#e0e0e0"/>
  <rect x="73" y="58" width="8" height="8" rx="2" fill="#ff9800"/>
  
  <rect x="40" y="69" width="8" height="8" rx="2" fill="#e0e0e0"/>
  <rect x="51" y="69" width="8" height="8" rx="2" fill="#e0e0e0"/>
  <rect x="62" y="69" width="8" height="8" rx="2" fill="#e0e0e0"/>
  <rect x="73" y="69" width="8" height="8" rx="2" fill="#ff9800"/>
  
  <rect x="40" y="80" width="8" height="8" rx="2" fill="#e0e0e0"/>
  <rect x="51" y="80" width="8" height="8" rx="2" fill="#e0e0e0"/>
  <rect x="62" y="80" width="8" height="8" rx="2" fill="#e0e0e0"/>
  <rect x="73" y="80" width="8" height="8" rx="2" fill="#764ba2"/>
</svg>
